<svg width="172" height="214" viewBox="0 0 172 214" fill="none" xmlns="http://www.w3.org/2000/svg">
<g clip-path="url(#clip0_43_940)">
<path d="M0.63324 190.129H17.0978V194.928H5.78098V199.236H16.3216V203.953H5.78098V208.67H17.5268V213.469H0.63324V190.129Z" fill="#E91E63"/>
<path d="M34.0936 213.081C33.3991 212.754 32.9088 212.244 32.6432 211.59C31.9896 212.366 31.2133 212.959 30.2736 213.387C29.334 213.816 28.333 214.02 27.2299 214.02C25.657 214.02 24.2475 213.632 23.0423 212.856C21.8371 212.081 20.877 210.998 20.2029 209.61C19.5287 208.221 19.2019 206.608 19.2019 204.77C19.2019 202.953 19.5492 201.34 20.2029 199.951C20.877 198.542 21.8166 197.46 23.0423 196.684C24.2475 195.908 25.657 195.52 27.2299 195.52C28.2105 195.52 29.1297 195.683 29.9877 196.031C30.8252 196.378 31.5606 196.847 32.1938 197.48L32.1121 196.888V196.051H36.9739V208.344C36.9739 208.63 37.0352 208.854 37.1782 208.997C37.3211 209.14 37.505 209.222 37.7501 209.222C38.0157 209.222 38.22 209.222 38.363 209.201L38.3425 213.449C37.8114 213.53 37.2803 213.551 36.7083 213.551C35.6665 213.571 34.8086 213.408 34.0936 213.081ZM25.2485 201.156C24.5131 202.014 24.1658 203.218 24.1658 204.77C24.1658 206.322 24.5335 207.527 25.2485 208.385C25.9839 209.263 26.9848 209.691 28.2717 209.691C29.5587 209.691 30.5801 209.263 31.295 208.385C32.0304 207.506 32.3777 206.302 32.3777 204.77C32.3777 203.218 32.01 202.014 31.295 201.156C30.5596 200.298 29.5587 199.869 28.2717 199.869C26.9848 199.849 25.9839 200.298 25.2485 201.156Z" fill="#E91E63"/>
<path d="M39.1392 196.051H42.6119V191.947H47.4941V196.051H51.9677V200.36H47.4941V207.221C47.4941 208.099 47.6984 208.732 48.1273 209.099C48.5563 209.467 49.2304 209.651 50.1701 209.651C50.5991 209.651 50.9259 209.63 51.171 209.61C51.3958 209.589 51.6817 209.528 51.9882 209.426V213.755C51.3549 213.898 50.4765 213.98 49.353 213.98C47.1672 213.98 45.4922 213.449 44.3482 212.366C43.2043 211.305 42.6323 209.793 42.6323 207.874V200.339H39.1596V196.051H39.1392Z" fill="#E91E63"/>
<path d="M68.3914 213.081C67.6969 212.754 67.2066 212.244 66.9411 211.59C66.2874 212.366 65.5112 212.959 64.5715 213.387C63.6318 213.816 62.6309 214.02 61.5278 214.02C59.9549 214.02 58.5454 213.632 57.3401 212.856C56.1349 212.081 55.1748 210.998 54.5007 209.61C53.8266 208.221 53.4998 206.608 53.4998 204.77C53.4998 202.953 53.847 201.34 54.5007 199.951C55.1748 198.542 56.1145 197.46 57.3401 196.684C58.5454 195.908 59.9549 195.52 61.5278 195.52C62.5083 195.52 63.4275 195.683 64.2855 196.031C65.123 196.378 65.8584 196.847 66.4917 197.48L66.41 196.888V196.051H71.2717V208.344C71.2717 208.63 71.333 208.854 71.476 208.997C71.619 209.14 71.8028 209.222 72.048 209.222C72.3135 209.222 72.5178 209.222 72.6608 209.201L72.6404 213.449C72.1093 213.53 71.5781 213.551 71.0062 213.551C69.9439 213.571 69.086 213.408 68.3914 213.081ZM59.5259 201.156C58.7905 202.014 58.4432 203.218 58.4432 204.77C58.4432 206.322 58.8109 207.527 59.5259 208.385C60.2613 209.263 61.2622 209.691 62.5492 209.691C63.8361 209.691 64.8575 209.263 65.5724 208.385C66.3078 207.506 66.6551 206.302 66.6551 204.77C66.6551 203.218 66.2874 202.014 65.5724 201.156C64.837 200.298 63.8361 199.869 62.5492 199.869C61.2827 199.849 60.2613 200.298 59.5259 201.156Z" fill="#E91E63"/>
<path d="M75.2347 190.129H81.9758L88.4717 208.752L94.9677 190.129H101.709V213.469H96.5815V198.195L91.209 213.469H85.714L80.3416 198.195V213.469H75.2142V190.129H75.2347Z" fill="#E91E63"/>
<path d="M119.297 213.081C118.602 212.754 118.112 212.244 117.847 211.59C117.193 212.366 116.417 212.959 115.477 213.387C114.537 213.816 113.536 214.02 112.433 214.02C110.86 214.02 109.451 213.632 108.246 212.856C107.04 212.081 106.08 210.998 105.406 209.61C104.732 208.221 104.405 206.608 104.405 204.77C104.405 202.953 104.752 201.34 105.406 199.951C106.08 198.542 107.02 197.46 108.246 196.684C109.451 195.908 110.86 195.52 112.433 195.52C113.414 195.52 114.333 195.683 115.191 196.031C116.028 196.378 116.764 196.847 117.397 197.48L117.315 196.888V196.051H122.177V208.344C122.177 208.63 122.238 208.854 122.381 208.997C122.524 209.14 122.708 209.222 122.953 209.222C123.219 209.222 123.423 209.222 123.566 209.201L123.546 213.449C123.015 213.53 122.484 213.551 121.912 213.551C120.87 213.571 120.012 213.408 119.297 213.081ZM110.452 201.156C109.716 202.014 109.369 203.218 109.369 204.77C109.369 206.322 109.737 207.527 110.452 208.385C111.187 209.263 112.188 209.691 113.475 209.691C114.762 209.691 115.783 209.263 116.498 208.385C117.234 207.506 117.581 206.302 117.581 204.77C117.581 203.218 117.213 202.014 116.498 201.156C115.763 200.298 114.762 199.869 113.475 199.869C112.188 199.849 111.187 200.298 110.452 201.156Z" fill="#E91E63"/>
<path d="M126.038 213.469V196.071H130.839V196.806L130.777 197.46C131.901 196.194 133.269 195.54 134.883 195.54C136.007 195.54 136.987 195.806 137.866 196.316C138.744 196.827 139.418 197.542 139.908 198.481C140.419 197.582 141.114 196.868 141.951 196.337C142.789 195.806 143.749 195.54 144.852 195.54C146.016 195.54 147.038 195.806 147.916 196.357C148.794 196.909 149.489 197.664 149.959 198.665C150.449 199.645 150.694 200.788 150.694 202.095V213.489H145.894V202.932C145.894 202.034 145.669 201.34 145.219 200.87C144.77 200.4 144.137 200.155 143.34 200.155C142.646 200.155 142.053 200.359 141.604 200.788C141.154 201.217 140.868 201.789 140.746 202.544V213.489H136.007V202.953C136.007 202.034 135.782 201.34 135.333 200.87C134.883 200.4 134.27 200.155 133.474 200.155C132.657 200.155 132.023 200.441 131.553 201.013C131.084 201.585 130.859 202.34 130.859 203.28V213.489H126.038V213.469Z" fill="#E91E63"/>
<path d="M167.731 213.081C167.036 212.754 166.546 212.244 166.28 211.59C165.627 212.366 164.85 212.959 163.911 213.387C162.971 213.816 161.97 214.02 160.867 214.02C159.294 214.02 157.885 213.632 156.679 212.856C155.474 212.081 154.514 210.998 153.84 209.61C153.166 208.221 152.839 206.608 152.839 204.77C152.839 202.953 153.186 201.34 153.84 199.951C154.514 198.542 155.454 197.46 156.679 196.684C157.885 195.908 159.294 195.52 160.867 195.52C161.848 195.52 162.767 195.683 163.625 196.031C164.462 196.378 165.198 196.847 165.831 197.48L165.749 196.888V196.051H170.611V208.344C170.611 208.63 170.672 208.854 170.815 208.997C170.958 209.14 171.142 209.222 171.387 209.222C171.653 209.222 171.857 209.222 172 209.201L171.98 213.449C171.448 213.53 170.917 213.551 170.345 213.551C169.304 213.571 168.446 213.408 167.731 213.081ZM158.886 201.156C158.15 202.014 157.803 203.218 157.803 204.77C157.803 206.322 158.171 207.527 158.886 208.385C159.621 209.263 160.622 209.691 161.909 209.691C163.196 209.691 164.217 209.263 164.932 208.385C165.667 207.506 166.015 206.302 166.015 204.77C166.015 203.218 165.647 202.014 164.932 201.156C164.197 200.298 163.196 199.869 161.909 199.869C160.622 199.849 159.621 200.298 158.886 201.156Z" fill="#E91E63"/>
<path d="M6.12827 0H0V170.485H6.12827V0Z" fill="#E91E63"/>
<path d="M87.9202 1.24561C41.5088 1.24561 3.88123 38.8385 3.88123 85.2528C3.88123 119.558 24.4518 149.024 53.9287 162.072L56.1553 120.416C46.6974 117.475 39.752 107.572 39.752 95.8099C39.752 81.6998 50.5378 65.3435 62.8147 65.3435C75.0917 65.3435 84.2432 81.7202 84.2432 95.8099C84.2432 107.592 77.2774 117.475 67.8399 120.416L70.3525 167.402C76.0109 168.607 81.8941 169.26 87.9202 169.26C93.456 169.26 98.8693 168.709 104.119 167.688L106.53 122.601C106.55 122.029 106.203 121.539 105.672 121.335C96.8879 118.108 90.494 108.695 90.494 97.5252C90.494 89.4185 94.1506 74.0832 99.5843 68.1206C100.361 67.2834 101.79 67.8551 101.79 68.9987V80.5767C101.79 81.4548 102.526 82.1899 103.404 82.1899C104.283 82.1899 105.018 81.4548 105.018 80.5767V70.816C105.018 70.7139 105.038 70.6322 105.059 70.5506C105.038 70.4893 105.018 70.428 105.018 70.3668V68.4065C105.018 68.0389 105.324 67.7326 105.692 67.7326H110.717C111.085 67.7326 111.391 68.0389 111.391 68.4065V70.5097C111.391 70.5301 111.391 70.5506 111.391 70.5506V80.5971C111.391 81.4752 112.127 82.2103 113.005 82.2103C113.884 82.2103 114.619 81.4752 114.619 80.5971V69.7542V69.7133V68.5086C114.619 68.0798 114.966 67.7326 115.395 67.7326H120.216C120.645 67.7326 120.992 68.0798 120.992 68.5086L120.972 71.2653C120.972 71.2857 120.972 71.3061 120.972 71.3061V80.5767C120.972 81.4548 121.707 82.1899 122.586 82.1899C123.464 82.1899 124.2 81.4548 124.2 80.5767V69.4887C124.2 68.2635 125.732 67.753 126.487 68.7128C131.186 74.655 134.086 89.6635 134.086 97.5252C134.086 108.674 127.713 118.108 118.909 121.335C118.378 121.539 118.03 122.029 118.051 122.601L120.216 162.807C150.592 150.147 171.959 120.191 171.959 85.2324C171.959 38.8385 134.332 1.24561 87.9202 1.24561Z" fill="#E91E63"/>
<path d="M164.156 170.24C168.488 170.24 172 166.73 172 162.399C172 158.068 168.488 154.558 164.156 154.558C159.824 154.558 156.312 158.068 156.312 162.399C156.312 166.73 159.824 170.24 164.156 170.24Z" fill="#E91E63"/>
</g>
<defs>
<clipPath id="clip0_43_940">
<rect width="172" height="214" fill="white"/>
</clipPath>
</defs>
</svg>
